<?xml version="1.0" encoding="iso-8859-1"?>
<!-- Generator: Adobe Illustrator 21.0.0, SVG Export Plug-In . SVG Version: 6.00 Build 0)  -->
<svg xmlns="http://www.w3.org/2000/svg" xmlns:xlink="http://www.w3.org/1999/xlink" version="1.1" id="Capa_1" x="0px" y="0px" viewBox="0 0 512 512" style="enable-background:new 0 0 512 512;" xml:space="preserve" width="512" height="512">
<g>
	<polygon points="215.728,120 174.272,120 159.272,150 230.728,150  "/>
	<path d="M150,225c0,19.53,12.578,36.024,30,42.237V180h-30V225z"/>
	<path d="M195,0C87.48,0,0,87.48,0,195s87.48,195,195,195s195-87.48,195-195S302.52,0,195,0z M285,210c24.814,0,45,20.186,45,45   c0,8.291-6.709,15-15,15s-15-6.709-15-15c0-8.276-6.724-15-15-15h-16.518c-2.408,11.812-7.846,22.41-15.104,31.501   C263.718,282.188,270,296.353,270,311.836V315c0,8.291-6.709,15-15,15c-8.291,0-15-6.709-15-15v-3.164   c0-8.276-3.549-15.872-9.518-21.172C219.869,296.426,207.902,300,195,300s-24.869-3.574-35.482-9.337   c-5.969,5.301-9.518,12.896-9.518,21.172V315c0,8.291-6.709,15-15,15s-15-6.709-15-15v-3.164c0-15.483,6.282-29.648,16.622-40.334   c-7.258-9.091-12.697-19.689-15.104-31.501H105c-8.276,0-15,6.724-15,15c0,8.291-6.709,15-15,15s-15-6.709-15-15   c0-24.814,20.186-45,45-45h15v-35.728l-24.873-12.437C92.798,160.64,90,162.339,90,165c0,8.291-6.709,15-15,15s-15-6.709-15-15   c0-24.996,26.314-41.14,48.53-30l19.759,9.875l15.278-30.555C129.602,106.674,120,92.014,120,75c0-8.291,6.709-15,15-15   s15,6.709,15,15c0,8.276,6.724,15,15,15h60c8.276,0,15-6.724,15-15c0-8.291,6.709-15,15-15c8.291,0,15,6.709,15,15   c0,17.014-9.602,31.674-23.567,39.32l15.276,30.553L281.455,135C303.748,123.776,330,140.109,330,165c0,8.291-6.709,15-15,15   s-15-6.709-15-15c0-2.52-2.552-4.341-5.142-3.164L270,174.271V210H285z"/>
	<path d="M210,267.237c17.422-6.213,30-22.707,30-42.237v-45h-30V267.237z"/>
	<path d="M318.959,382.592l24.119,24.119l63.633-63.633l-24.119-24.119C365.858,344.196,344.196,365.858,318.959,382.592z"/>
	<path d="M498.848,435.214l-70.926-70.925l-63.633,63.633l70.926,70.925c17.494,17.521,46.033,17.554,63.647,0   C516.382,481.283,516.382,452.748,498.848,435.214z"/>
</g>















</svg>
