<?xml version="1.0" encoding="iso-8859-1"?>
<!-- Generator: Adobe Illustrator 19.0.0, SVG Export Plug-In . SVG Version: 6.00 Build 0)  -->
<svg version="1.1" id="Capa_1" xmlns="http://www.w3.org/2000/svg" xmlns:xlink="http://www.w3.org/1999/xlink" x="0px" y="0px"
	 viewBox="0 0 512.002 512.002" style="enable-background:new 0 0 512.002 512.002;" xml:space="preserve">
<g>
	<g>
		<path d="M364.326,177.846l-10.209,108.577c8.02,9.216,12.263,19.68,12.263,30.786c0,13.758-6.504,26.534-18.648,37.168
			L332.91,512.002h52.873l52.774-334.156H364.326z"/>
	</g>
</g>
<g>
	<g>
		<path d="M177.809,177.846l8.297,88.244c15.671-7.39,34.636-12.088,54.896-13.644v-74.6H177.809z"/>
	</g>
</g>
<g>
	<g>
		<path d="M196.107,372.509l13.117,139.493h31.777V381.973C224.879,380.735,209.584,377.5,196.107,372.509z"/>
	</g>
</g>
<g>
	<g>
		<path d="M414.201,123.277c-4.411-4.668-9.549-8.392-15.174-11.062c1.244-5.336,1.629-10.893,1.1-16.478
			c-2.262-23.866-21.189-43.061-45.004-45.643c-4.665-0.506-9.296-0.371-13.789,0.359c-0.004-0.585-0.019-1.17-0.043-1.757
			c-1.081-25.895-22.195-47.252-48.069-48.623c-14.168-0.747-27.419,4.302-37.22,13.336c-9.801-9.033-23.06-14.083-37.216-13.336
			c-26.212,1.386-47.339,23.037-48.097,49.292c-0.01,0.358-0.017,0.717-0.02,1.074c-2.711-0.437-5.49-0.66-8.283-0.65
			c-13.504,0.03-26.735,5.711-36.298,15.587c-9.57,9.882-14.826,23.298-14.422,36.809c0.102,3.414,0.54,6.775,1.3,10.044
			c-5.329,2.531-10.226,6.006-14.472,10.328c-6.931,7.056-11.562,15.802-13.515,25.289H427.02
			C425.142,138.699,420.774,130.233,414.201,123.277z"/>
	</g>
</g>
<g>
	<g>
		<path d="M316.443,294.879c-15.665-8.268-37.695-13.01-60.442-13.01s-44.776,4.742-60.442,13.01
			c-12.484,6.59-19.937,14.938-19.937,22.331s7.453,15.741,19.937,22.331c15.666,8.268,37.695,13.01,60.442,13.01
			s44.776-4.742,60.442-13.01c12.485-6.59,19.938-14.938,19.938-22.331C336.381,309.816,328.928,301.469,316.443,294.879z"/>
	</g>
</g>
<g>
	<g>
		<path d="M164.27,354.378c-12.144-10.635-18.648-23.41-18.648-37.168c0-11.106,4.243-21.57,12.263-30.786l-10.209-108.577H73.445
			l52.774,334.155h52.873L164.27,354.378z"/>
	</g>
</g>
<g>
	<g>
		<path d="M271.002,381.973v130.029h31.777l13.117-139.493C302.419,377.499,287.124,380.734,271.002,381.973z"/>
	</g>
</g>
<g>
	<g>
		<path d="M271.001,177.846v74.6c20.259,1.556,39.224,6.254,54.896,13.644l8.297-88.244H271.001z"/>
	</g>
</g>
<g>
</g>
<g>
</g>
<g>
</g>
<g>
</g>
<g>
</g>
<g>
</g>
<g>
</g>
<g>
</g>
<g>
</g>
<g>
</g>
<g>
</g>
<g>
</g>
<g>
</g>
<g>
</g>
<g>
</g>
</svg>
